<mxfile host="app.diagrams.net" modified="2021-04-16T06:45:21.500Z" agent="5.0 (Windows NT 10.0; Win64; x64) AppleWebKit/537.36 (KHTML, like Gecko) Chrome/89.0.4389.114 Safari/537.36" etag="yIDbW7qPznGE062qG8Ye" version="14.6.0" type="github">
  <diagram id="yD-X8I2glyumHBhZOcvF" name="Page-1">
    <mxGraphModel dx="1422" dy="706" grid="1" gridSize="10" guides="1" tooltips="1" connect="1" arrows="1" fold="1" page="1" pageScale="1" pageWidth="827" pageHeight="1169" math="0" shadow="0">
      <root>
        <mxCell id="0" />
        <mxCell id="1" parent="0" />
        <mxCell id="wImDSeCVZ9o17ax5r_Kj-4" value="" style="edgeStyle=orthogonalEdgeStyle;rounded=0;orthogonalLoop=1;jettySize=auto;html=1;" edge="1" parent="1" source="wImDSeCVZ9o17ax5r_Kj-1" target="wImDSeCVZ9o17ax5r_Kj-2">
          <mxGeometry relative="1" as="geometry" />
        </mxCell>
        <mxCell id="wImDSeCVZ9o17ax5r_Kj-1" value="start" style="ellipse;whiteSpace=wrap;html=1;" vertex="1" parent="1">
          <mxGeometry x="335" y="40" width="90" height="60" as="geometry" />
        </mxCell>
        <mxCell id="wImDSeCVZ9o17ax5r_Kj-5" value="" style="edgeStyle=orthogonalEdgeStyle;rounded=0;orthogonalLoop=1;jettySize=auto;html=1;" edge="1" parent="1" source="wImDSeCVZ9o17ax5r_Kj-2" target="wImDSeCVZ9o17ax5r_Kj-3">
          <mxGeometry relative="1" as="geometry" />
        </mxCell>
        <mxCell id="wImDSeCVZ9o17ax5r_Kj-2" value="调用履约中心发货" style="rounded=0;whiteSpace=wrap;html=1;" vertex="1" parent="1">
          <mxGeometry x="320" y="160" width="120" height="60" as="geometry" />
        </mxCell>
        <mxCell id="wImDSeCVZ9o17ax5r_Kj-3" value="end" style="ellipse;whiteSpace=wrap;html=1;" vertex="1" parent="1">
          <mxGeometry x="330" y="290" width="100" height="60" as="geometry" />
        </mxCell>
      </root>
    </mxGraphModel>
  </diagram>
</mxfile>
